<!--?xml version="1.0" encoding="utf-8"?-->
<!-- Generator: Adobe Illustrator 24.1.1, SVG Export Plug-In . SVG Version: 6.00 Build 0)  -->
<svg version="1.1" id="_x31_0" xmlns="http://www.w3.org/2000/svg" xmlns:xlink="http://www.w3.org/1999/xlink" x="0px" y="0px" viewBox="0 0 512 512" style="width: 256px; height: 256px; opacity: 1;" xml:space="preserve">
<style type="text/css">
	.st0{fill:#374149;}
</style>
<g>
	<path class="st0" d="M68.566,423.08c62.477,5.586,124.953,8.386,187.434,8.382c62.16,0.004,124.324-2.777,186.488-8.309
		c0.266-0.023,0.531-0.038,0.794-0.062l0,0c0.054-0.004,0.109-0.007,0.16-0.011l-0.622-6.969l-0.003-0.066l0.629,7.039
		c29.308-2.633,53.308-24.524,58.469-53.555c6.718-37.969,10.09-75.75,10.086-113.531c0.004-37.781-3.363-75.562-10.086-113.515
		c-5.157-29.035-29.157-50.938-58.477-53.555c-62.465-5.602-124.93-8.394-187.398-8.39c-62.492-0.004-124.985,2.797-187.473,8.39
		c-29.316,2.618-53.328,24.516-58.473,53.559C3.371,180.428,0,218.213,0,256.002c0,37.778,3.367,75.562,10.094,113.527
		C15.242,398.564,39.254,420.452,68.566,423.08z M28.074,256.002c0.004-36.121,3.218-72.238,9.664-108.621
		c2.91-16.493,16.59-29,33.328-30.493c61.664-5.515,123.32-8.277,184.973-8.281c61.629,0.004,123.258,2.754,184.898,8.281
		c16.73,1.493,30.414,14,33.332,30.497c6.442,36.386,9.656,72.5,9.66,108.613c-0.004,36.11-3.218,72.226-9.66,108.637
		c-2.914,16.481-16.598,28.985-33.332,30.485c-61.653,5.511-123.297,8.269-184.938,8.273c-61.641-0.004-123.282-2.766-184.93-8.273
		c-16.746-1.5-30.422-14.008-33.332-30.485C31.293,328.232,28.078,292.112,28.074,256.002z" style="fill: rgb(204, 166, 123);"></path>
	<path class="st0" d="M226.133,319.998l99.16-57.242c5.203-3.003,5.203-10.511,0-13.511l-99.16-57.246
		c-5.187-3-11.699,0.758-11.699,6.762v114.493C214.434,319.252,220.946,323.002,226.133,319.998z" style="fill: rgb(204, 166, 123);"></path>
</g>
</svg>
